<svg xmlns="http://www.w3.org/2000/svg" tabindex="0" version="1.1" viewBox="82.04058837890625 -14.60632610321045 706.5381469726562 624.6063232421875"><g transform="scale(1.090227911333125) translate(74.25773195876297,-12)"><g transform="translate(162, 33)"><rect x="0" y="0" width="371" height="512.8333333333334" style="fill:rgb(221, 221, 255);stroke:rgb(68, 68, 136);"/><text transform="translate(172, -21)" style="dominant-baseline:hanging;font-family:sans-serif;font-size:13.3333px;perspective-origin:14.7969px 0px;stroke:rgb(0, 0, 0);stroke-width:0px;">GCD</text><g transform="translate(-5, 63.5)"><rect x="0" y="0" width="5" height="5" style="fill:rgb(102, 102, 204);stroke:rgb(68, 68, 136);"/><text transform="translate(-46, 6)" style="dominant-baseline:hanging;font-family:sans-serif;font-size:13.3333px;perspective-origin:15.5px 0px;stroke:rgb(0, 0, 0);stroke-width:0px;">clock</text></g><g transform="translate(-5, 95.5)"><rect x="0" y="0" width="5" height="5" style="fill:rgb(102, 102, 204);stroke:rgb(68, 68, 136);"/><text transform="translate(-46, 6)" style="dominant-baseline:hanging;font-family:sans-serif;font-size:13.3333px;perspective-origin:14.7969px 0px;stroke:rgb(0, 0, 0);stroke-width:0px;">reset</text></g><g transform="translate(-5, 31.5)"><rect x="0" y="0" width="5" height="5" style="fill:rgb(102, 102, 204);stroke:rgb(68, 68, 136);"/><text transform="translate(-82, 6)" style="dominant-baseline:hanging;font-family:sans-serif;font-size:13.3333px;perspective-origin:28.5px 0px;stroke:rgb(0, 0, 0);stroke-width:0px;">io_value1</text></g><g transform="translate(-5, 366.83333333333337)"><rect x="0" y="0" width="5" height="5" style="fill:rgb(102, 102, 204);stroke:rgb(68, 68, 136);"/><text transform="translate(-82, 6)" style="dominant-baseline:hanging;font-family:sans-serif;font-size:13.3333px;perspective-origin:28.5px 0px;stroke:rgb(0, 0, 0);stroke-width:0px;">io_value2</text></g><g transform="translate(-5, 169.66666666666669)"><rect x="0" y="0" width="5" height="5" style="fill:rgb(102, 102, 204);stroke:rgb(68, 68, 136);"/><text transform="translate(-145, 6)" style="dominant-baseline:hanging;font-family:sans-serif;font-size:13.3333px;perspective-origin:50.2188px 0px;stroke:rgb(0, 0, 0);stroke-width:0px;">io_loadingValues</text></g><g transform="translate(371, 20.5)"><rect x="0" y="0" width="5" height="5" style="fill:rgb(102, 102, 204);stroke:rgb(68, 68, 136);"/><text transform="translate(6, -17)" style="dominant-baseline:hanging;font-family:sans-serif;font-size:13.3333px;perspective-origin:42.1875px 0px;stroke:rgb(0, 0, 0);stroke-width:0px;">io_outputGCD</text></g><g transform="translate(371, 231.83333333333337)"><rect x="0" y="0" width="5" height="5" style="fill:rgb(102, 102, 204);stroke:rgb(68, 68, 136);"/><text transform="translate(6, 6)" style="dominant-baseline:hanging;font-family:sans-serif;font-size:13.3333px;perspective-origin:41.7031px 0px;stroke:rgb(0, 0, 0);stroke-width:0px;">io_outputValid</text></g><g transform="translate(47, 66)"><rect x="0" y="0" width="30" height="40" style="fill:rgb(221, 221, 255);stroke:rgb(68, 68, 136);"/><text transform="translate(10.5, -21)" style="dominant-baseline:hanging;font-family:sans-serif;font-size:13.3333px;perspective-origin:3.67188px 0px;stroke:rgb(0, 0, 0);stroke-width:0px;">x</text><text transform="translate(5, 12)" style="dominant-baseline:hanging;font-family:sans-serif;font-size:13.3333px;perspective-origin:9.625px 0px;stroke:rgb(0, 0, 0);stroke-width:0px;">reg</text><g transform="translate(-5, 17.5)"><rect x="0" y="0" width="5" height="5" style="fill:rgb(102, 102, 204);stroke:rgb(68, 68, 136);"/></g><g transform="translate(30, 17.5)"><rect x="0" y="0" width="5" height="5" style="fill:rgb(102, 102, 204);stroke:rgb(68, 68, 136);"/></g></g><g transform="translate(47, 204.16666666666669)"><rect x="0" y="0" width="30" height="40" style="fill:rgb(221, 221, 255);stroke:rgb(68, 68, 136);"/><text transform="translate(10.5, -21)" style="dominant-baseline:hanging;font-family:sans-serif;font-size:13.3333px;perspective-origin:3.67188px 0px;stroke:rgb(0, 0, 0);stroke-width:0px;">y</text><text transform="translate(5, 12)" style="dominant-baseline:hanging;font-family:sans-serif;font-size:13.3333px;perspective-origin:9.625px 0px;stroke:rgb(0, 0, 0);stroke-width:0px;">reg</text><g transform="translate(-5, 17.5)"><rect x="0" y="0" width="5" height="5" style="fill:rgb(102, 102, 204);stroke:rgb(68, 68, 136);"/></g><g transform="translate(30, 17.5)"><rect x="0" y="0" width="5" height="5" style="fill:rgb(102, 102, 204);stroke:rgb(68, 68, 136);"/></g></g><g transform="translate(117, 303.33333333333337)"><rect x="0" y="0" width="32" height="56" style="fill:rgb(221, 221, 255);stroke:rgb(68, 68, 136);"/><text transform="translate(7, -21)" style="dominant-baseline:hanging;font-family:sans-serif;font-size:13.3333px;perspective-origin:5.54688px 0px;stroke:rgb(0, 0, 0);stroke-width:0px;">gt</text><g transform="translate(-5, 35.666666666666664)"><rect x="0" y="0" width="5" height="5" style="fill:rgb(102, 102, 204);stroke:rgb(68, 68, 136);"/><text transform="translate(6, -5.5)" style="dominant-baseline:hanging;font-family:sans-serif;font-size:13.3333px;perspective-origin:8.89062px 0px;stroke:rgb(0, 0, 0);stroke-width:0px;">in2</text></g><g transform="translate(-5, 15.333333333333332)"><rect x="0" y="0" width="5" height="5" style="fill:rgb(102, 102, 204);stroke:rgb(68, 68, 136);"/><text transform="translate(6, -5.5)" style="dominant-baseline:hanging;font-family:sans-serif;font-size:13.3333px;perspective-origin:8.89062px 0px;stroke:rgb(0, 0, 0);stroke-width:0px;">in1</text></g><g transform="translate(32, 25.5)"><rect x="0" y="0" width="5" height="5" style="fill:rgb(102, 102, 204);stroke:rgb(68, 68, 136);"/></g></g><g transform="translate(117, 68.16666666666667)"><rect x="0" y="0" width="32" height="56" style="fill:rgb(221, 221, 255);stroke:rgb(68, 68, 136);"/><text transform="translate(2.5, -21)" style="dominant-baseline:hanging;font-family:sans-serif;font-size:13.3333px;perspective-origin:10.7344px 0px;stroke:rgb(0, 0, 0);stroke-width:0px;">sub</text><g transform="translate(-5, 35.666666666666664)"><rect x="0" y="0" width="5" height="5" style="fill:rgb(102, 102, 204);stroke:rgb(68, 68, 136);"/><text transform="translate(6, -5.5)" style="dominant-baseline:hanging;font-family:sans-serif;font-size:13.3333px;perspective-origin:8.89062px 0px;stroke:rgb(0, 0, 0);stroke-width:0px;">in2</text></g><g transform="translate(-5, 15.333333333333332)"><rect x="0" y="0" width="5" height="5" style="fill:rgb(102, 102, 204);stroke:rgb(68, 68, 136);"/><text transform="translate(6, -5.5)" style="dominant-baseline:hanging;font-family:sans-serif;font-size:13.3333px;perspective-origin:8.89062px 0px;stroke:rgb(0, 0, 0);stroke-width:0px;">in1</text></g><g transform="translate(32, 25.5)"><rect x="0" y="0" width="5" height="5" style="fill:rgb(102, 102, 204);stroke:rgb(68, 68, 136);"/></g></g><g transform="translate(179, 83.66666666666667)"><rect x="0" y="0" width="20" height="40" style="fill:rgb(221, 221, 255);stroke:rgb(68, 68, 136);"/><text transform="translate(0, -21)" style="dominant-baseline:hanging;font-family:sans-serif;font-size:13.3333px;perspective-origin:8.51562px 0px;stroke:rgb(0, 0, 0);stroke-width:0px;">tail</text><g transform="translate(-5, 10)"><rect x="0" y="0" width="5" height="5" style="fill:rgb(102, 102, 204);stroke:rgb(68, 68, 136);"/></g><g transform="translate(-5, 25)"><rect x="0" y="0" width="5" height="5" style="fill:rgb(102, 102, 204);stroke:rgb(68, 68, 136);"/><text transform="translate(6, -5.5)" style="dominant-baseline:hanging;font-family:sans-serif;font-size:13.3333px;perspective-origin:3.70312px 0px;stroke:rgb(0, 0, 0);stroke-width:0px;">1</text></g><g transform="translate(20, 17.5)"><rect x="0" y="0" width="5" height="5" style="fill:rgb(102, 102, 204);stroke:rgb(68, 68, 136);"/></g></g><g transform="translate(117, 412.33333333333337)"><rect x="0" y="0" width="32" height="56" style="fill:rgb(221, 221, 255);stroke:rgb(68, 68, 136);"/><text transform="translate(2.5, -21)" style="dominant-baseline:hanging;font-family:sans-serif;font-size:13.3333px;perspective-origin:10.7344px 0px;stroke:rgb(0, 0, 0);stroke-width:0px;">sub</text><g transform="translate(-5, 35.666666666666664)"><rect x="0" y="0" width="5" height="5" style="fill:rgb(102, 102, 204);stroke:rgb(68, 68, 136);"/><text transform="translate(6, -5.5)" style="dominant-baseline:hanging;font-family:sans-serif;font-size:13.3333px;perspective-origin:8.89062px 0px;stroke:rgb(0, 0, 0);stroke-width:0px;">in2</text></g><g transform="translate(-5, 15.333333333333332)"><rect x="0" y="0" width="5" height="5" style="fill:rgb(102, 102, 204);stroke:rgb(68, 68, 136);"/><text transform="translate(6, -5.5)" style="dominant-baseline:hanging;font-family:sans-serif;font-size:13.3333px;perspective-origin:8.89062px 0px;stroke:rgb(0, 0, 0);stroke-width:0px;">in1</text></g><g transform="translate(32, 25.5)"><rect x="0" y="0" width="5" height="5" style="fill:rgb(102, 102, 204);stroke:rgb(68, 68, 136);"/></g></g><g transform="translate(179, 427.83333333333337)"><rect x="0" y="0" width="20" height="40" style="fill:rgb(221, 221, 255);stroke:rgb(68, 68, 136);"/><text transform="translate(0, -21)" style="dominant-baseline:hanging;font-family:sans-serif;font-size:13.3333px;perspective-origin:8.51562px 0px;stroke:rgb(0, 0, 0);stroke-width:0px;">tail</text><g transform="translate(-5, 10)"><rect x="0" y="0" width="5" height="5" style="fill:rgb(102, 102, 204);stroke:rgb(68, 68, 136);"/></g><g transform="translate(-5, 25)"><rect x="0" y="0" width="5" height="5" style="fill:rgb(102, 102, 204);stroke:rgb(68, 68, 136);"/><text transform="translate(6, -5.5)" style="dominant-baseline:hanging;font-family:sans-serif;font-size:13.3333px;perspective-origin:3.70312px 0px;stroke:rgb(0, 0, 0);stroke-width:0px;">1</text></g><g transform="translate(20, 17.5)"><rect x="0" y="0" width="5" height="5" style="fill:rgb(102, 102, 204);stroke:rgb(68, 68, 136);"/></g></g><g transform="translate(240, 106.16666666666667)"><rect x="0" y="0" width="32" height="56" style="fill:rgb(221, 221, 255);stroke:rgb(68, 68, 136);"/><text transform="translate(2.5, -21)" style="dominant-baseline:hanging;font-family:sans-serif;font-size:13.3333px;perspective-origin:12.9219px 0px;stroke:rgb(0, 0, 0);stroke-width:0px;">mux</text><g transform="translate(-5, 40.75)"><rect x="0" y="0" width="5" height="5" style="fill:rgb(102, 102, 204);stroke:rgb(68, 68, 136);"/><text transform="translate(6, -5.5)" style="dominant-baseline:hanging;font-family:sans-serif;font-size:13.3333px;perspective-origin:8.51562px 0px;stroke:rgb(0, 0, 0);stroke-width:0px;">sel</text></g><g transform="translate(-5, 25.5)"><rect x="0" y="0" width="5" height="5" style="fill:rgb(102, 102, 204);stroke:rgb(68, 68, 136);"/><text transform="translate(6, -5.5)" style="dominant-baseline:hanging;font-family:sans-serif;font-size:13.3333px;perspective-origin:8.89062px 0px;stroke:rgb(0, 0, 0);stroke-width:0px;">in2</text></g><g transform="translate(-5, 10.25)"><rect x="0" y="0" width="5" height="5" style="fill:rgb(102, 102, 204);stroke:rgb(68, 68, 136);"/><text transform="translate(6, -5.5)" style="dominant-baseline:hanging;font-family:sans-serif;font-size:13.3333px;perspective-origin:8.89062px 0px;stroke:rgb(0, 0, 0);stroke-width:0px;">in1</text></g><g transform="translate(32, 25.5)"><rect x="0" y="0" width="5" height="5" style="fill:rgb(102, 102, 204);stroke:rgb(68, 68, 136);"/></g></g><g transform="translate(240, 419.83333333333337)"><rect x="0" y="0" width="32" height="56" style="fill:rgb(221, 221, 255);stroke:rgb(68, 68, 136);"/><text transform="translate(2.5, -21)" style="dominant-baseline:hanging;font-family:sans-serif;font-size:13.3333px;perspective-origin:12.9219px 0px;stroke:rgb(0, 0, 0);stroke-width:0px;">mux</text><g transform="translate(-5, 40.75)"><rect x="0" y="0" width="5" height="5" style="fill:rgb(102, 102, 204);stroke:rgb(68, 68, 136);"/><text transform="translate(6, -5.5)" style="dominant-baseline:hanging;font-family:sans-serif;font-size:13.3333px;perspective-origin:8.51562px 0px;stroke:rgb(0, 0, 0);stroke-width:0px;">sel</text></g><g transform="translate(-5, 25.5)"><rect x="0" y="0" width="5" height="5" style="fill:rgb(102, 102, 204);stroke:rgb(68, 68, 136);"/><text transform="translate(6, -5.5)" style="dominant-baseline:hanging;font-family:sans-serif;font-size:13.3333px;perspective-origin:8.89062px 0px;stroke:rgb(0, 0, 0);stroke-width:0px;">in2</text></g><g transform="translate(-5, 10.25)"><rect x="0" y="0" width="5" height="5" style="fill:rgb(102, 102, 204);stroke:rgb(68, 68, 136);"/><text transform="translate(6, -5.5)" style="dominant-baseline:hanging;font-family:sans-serif;font-size:13.3333px;perspective-origin:8.89062px 0px;stroke:rgb(0, 0, 0);stroke-width:0px;">in1</text></g><g transform="translate(32, 25.5)"><rect x="0" y="0" width="5" height="5" style="fill:rgb(102, 102, 204);stroke:rgb(68, 68, 136);"/></g></g><g transform="translate(117, 206.33333333333334)"><rect x="0" y="0" width="32" height="56" style="fill:rgb(221, 221, 255);stroke:rgb(68, 68, 136);"/><text transform="translate(7, -21)" style="dominant-baseline:hanging;font-family:sans-serif;font-size:13.3333px;perspective-origin:7.40625px 0px;stroke:rgb(0, 0, 0);stroke-width:0px;">eq</text><g transform="translate(-5, 35.666666666666664)"><rect x="0" y="0" width="5" height="5" style="fill:rgb(102, 102, 204);stroke:rgb(68, 68, 136);"/><text transform="translate(6, -5.5)" style="dominant-baseline:hanging;font-family:sans-serif;font-size:13.3333px;perspective-origin:3.70312px 0px;stroke:rgb(0, 0, 0);stroke-width:0px;">0</text></g><g transform="translate(-5, 15.333333333333332)"><rect x="0" y="0" width="5" height="5" style="fill:rgb(102, 102, 204);stroke:rgb(68, 68, 136);"/><text transform="translate(6, -5.5)" style="dominant-baseline:hanging;font-family:sans-serif;font-size:13.3333px;perspective-origin:8.89062px 0px;stroke:rgb(0, 0, 0);stroke-width:0px;">in1</text></g><g transform="translate(32, 25.5)"><rect x="0" y="0" width="5" height="5" style="fill:rgb(102, 102, 204);stroke:rgb(68, 68, 136);"/></g></g><g transform="translate(302, 106.16666666666667)"><rect x="0" y="0" width="32" height="56" style="fill:rgb(221, 221, 255);stroke:rgb(68, 68, 136);"/><text transform="translate(2.5, -21)" style="dominant-baseline:hanging;font-family:sans-serif;font-size:13.3333px;perspective-origin:12.9219px 0px;stroke:rgb(0, 0, 0);stroke-width:0px;">mux</text><g transform="translate(-5, 40.75)"><rect x="0" y="0" width="5" height="5" style="fill:rgb(102, 102, 204);stroke:rgb(68, 68, 136);"/><text transform="translate(6, -5.5)" style="dominant-baseline:hanging;font-family:sans-serif;font-size:13.3333px;perspective-origin:8.51562px 0px;stroke:rgb(0, 0, 0);stroke-width:0px;">sel</text></g><g transform="translate(-5, 25.5)"><rect x="0" y="0" width="5" height="5" style="fill:rgb(102, 102, 204);stroke:rgb(68, 68, 136);"/><text transform="translate(6, -5.5)" style="dominant-baseline:hanging;font-family:sans-serif;font-size:13.3333px;perspective-origin:8.89062px 0px;stroke:rgb(0, 0, 0);stroke-width:0px;">in2</text></g><g transform="translate(-5, 10.25)"><rect x="0" y="0" width="5" height="5" style="fill:rgb(102, 102, 204);stroke:rgb(68, 68, 136);"/><text transform="translate(6, -5.5)" style="dominant-baseline:hanging;font-family:sans-serif;font-size:13.3333px;perspective-origin:8.89062px 0px;stroke:rgb(0, 0, 0);stroke-width:0px;">in1</text></g><g transform="translate(32, 25.5)"><rect x="0" y="0" width="5" height="5" style="fill:rgb(102, 102, 204);stroke:rgb(68, 68, 136);"/></g></g><g transform="translate(302, 419.83333333333337)"><rect x="0" y="0" width="32" height="56" style="fill:rgb(221, 221, 255);stroke:rgb(68, 68, 136);"/><text transform="translate(2.5, -21)" style="dominant-baseline:hanging;font-family:sans-serif;font-size:13.3333px;perspective-origin:12.9219px 0px;stroke:rgb(0, 0, 0);stroke-width:0px;">mux</text><g transform="translate(-5, 40.75)"><rect x="0" y="0" width="5" height="5" style="fill:rgb(102, 102, 204);stroke:rgb(68, 68, 136);"/><text transform="translate(6, -5.5)" style="dominant-baseline:hanging;font-family:sans-serif;font-size:13.3333px;perspective-origin:8.51562px 0px;stroke:rgb(0, 0, 0);stroke-width:0px;">sel</text></g><g transform="translate(-5, 25.5)"><rect x="0" y="0" width="5" height="5" style="fill:rgb(102, 102, 204);stroke:rgb(68, 68, 136);"/><text transform="translate(6, -5.5)" style="dominant-baseline:hanging;font-family:sans-serif;font-size:13.3333px;perspective-origin:8.89062px 0px;stroke:rgb(0, 0, 0);stroke-width:0px;">in2</text></g><g transform="translate(-5, 10.25)"><rect x="0" y="0" width="5" height="5" style="fill:rgb(102, 102, 204);stroke:rgb(68, 68, 136);"/><text transform="translate(6, -5.5)" style="dominant-baseline:hanging;font-family:sans-serif;font-size:13.3333px;perspective-origin:8.89062px 0px;stroke:rgb(0, 0, 0);stroke-width:0px;">in1</text></g><g transform="translate(32, 25.5)"><rect x="0" y="0" width="5" height="5" style="fill:rgb(102, 102, 204);stroke:rgb(68, 68, 136);"/></g></g><g><path d="M 339,134.16666666666669 L 349,134.16666666666669 L 349,12 L 32,12 L 32,86 L 42,86" style="fill:none;stroke:rgb(34, 34, 68);"/><path d="M 0,0 L 8,-3 L 8,3 Z" transform="rotate(180 42 86) translate(42 86)" style="fill:rgb(51, 51, 102);stroke:rgb(34, 34, 68);"/></g><g><path d="M 82,86 L 92,86 L 92,23 L 376,23" style="fill:none;stroke:rgb(34, 34, 68);"/><path d="M 0,0 L 8,-3 L 8,3 Z" transform="rotate(180 376 23) translate(376 23)" style="fill:rgb(51, 51, 102);stroke:rgb(34, 34, 68);"/></g><g><path d="M 82,224.16666666666669 L 102,224.16666666666669 L 102,430.1666666666667 L 112,430.1666666666667" style="fill:none;stroke:rgb(34, 34, 68);"/><path d="M 0,0 L 8,-3 L 8,3 Z" transform="rotate(180 112 430.1666666666667) translate(112 430.1666666666667)" style="fill:rgb(51, 51, 102);stroke:rgb(34, 34, 68);"/><g transform="translate(102, 224.16666666666669)"><circle r="2" style="fill:rgb(34, 34, 68);"/></g></g><g><path d="M 277,134.16666666666669 L 297,134.16666666666669" style="fill:none;stroke:rgb(34, 34, 68);"/><path d="M 0,0 L 8,-3 L 8,3 Z" transform="rotate(180 297 134.16666666666669) translate(297 134.16666666666669)" style="fill:rgb(51, 51, 102);stroke:rgb(34, 34, 68);"/></g><g><path d="M 154,234.33333333333337 L 376,234.33333333333337" style="fill:none;stroke:rgb(34, 34, 68);"/><path d="M 0,0 L 8,-3 L 8,3 Z" transform="rotate(180 376 234.33333333333337) translate(376 234.33333333333337)" style="fill:rgb(51, 51, 102);stroke:rgb(34, 34, 68);"/></g><g><path d="M -5,172.16666666666669 L 32,172.16666666666669 L 32,488.83333333333337 L 287,488.83333333333337 L 287,463.08333333333337 L 297,463.08333333333337" style="fill:none;stroke:rgb(34, 34, 68);"/><path d="M 0,0 L 8,-3 L 8,3 Z" transform="rotate(180 297 463.08333333333337) translate(297 463.08333333333337)" style="fill:rgb(51, 51, 102);stroke:rgb(34, 34, 68);"/><g transform="translate(32, 172.16666666666669)"><circle r="2" style="fill:rgb(34, 34, 68);"/></g></g><g><path d="M 82,224.16666666666669 L 102,224.16666666666669 L 102,380.33333333333337 L 225,380.33333333333337 L 225,432.58333333333337 L 235,432.58333333333337" style="fill:none;stroke:rgb(34, 34, 68);"/><path d="M 0,0 L 8,-3 L 8,3 Z" transform="rotate(180 235 432.58333333333337) translate(235 432.58333333333337)" style="fill:rgb(51, 51, 102);stroke:rgb(34, 34, 68);"/><g transform="translate(102, 380.33333333333337)"><circle r="2" style="fill:rgb(34, 34, 68);"/></g></g><g><path d="M 154,96.16666666666669 L 174,96.16666666666669" style="fill:none;stroke:rgb(34, 34, 68);"/><path d="M 0,0 L 8,-3 L 8,3 Z" transform="rotate(180 174 96.16666666666669) translate(174 96.16666666666669)" style="fill:rgb(51, 51, 102);stroke:rgb(34, 34, 68);"/></g><g><path d="M 82,224.16666666666669 L 102,224.16666666666669 L 102,106.33333333333334 L 112,106.33333333333334" style="fill:none;stroke:rgb(34, 34, 68);"/><path d="M 0,0 L 8,-3 L 8,3 Z" transform="rotate(180 112 106.33333333333334) translate(112 106.33333333333334)" style="fill:rgb(51, 51, 102);stroke:rgb(34, 34, 68);"/></g><g><path d="M 82,224.16666666666669 L 102,224.16666666666669 L 102,341.50000000000006 L 112,341.50000000000006" style="fill:none;stroke:rgb(34, 34, 68);"/><path d="M 0,0 L 8,-3 L 8,3 Z" transform="rotate(180 112 341.50000000000006) translate(112 341.50000000000006)" style="fill:rgb(51, 51, 102);stroke:rgb(34, 34, 68);"/><g transform="translate(102, 341.50000000000006)"><circle r="2" style="fill:rgb(34, 34, 68);"/></g></g><g><path d="M 82,224.16666666666669 L 112,224.16666666666669" style="fill:none;stroke:rgb(34, 34, 68);"/><path d="M 0,0 L 8,-3 L 8,3 Z" transform="rotate(180 112 224.16666666666669) translate(112 224.16666666666669)" style="fill:rgb(51, 51, 102);stroke:rgb(34, 34, 68);"/></g><g><path d="M 277,447.83333333333337 L 297,447.83333333333337" style="fill:none;stroke:rgb(34, 34, 68);"/><path d="M 0,0 L 8,-3 L 8,3 Z" transform="rotate(180 297 447.83333333333337) translate(297 447.83333333333337)" style="fill:rgb(51, 51, 102);stroke:rgb(34, 34, 68);"/></g><g><path d="M -5,172.16666666666669 L 287,172.16666666666669 L 287,149.41666666666669 L 297,149.41666666666669" style="fill:none;stroke:rgb(34, 34, 68);"/><path d="M 0,0 L 8,-3 L 8,3 Z" transform="rotate(180 297 149.41666666666669) translate(297 149.41666666666669)" style="fill:rgb(51, 51, 102);stroke:rgb(34, 34, 68);"/></g><g><path d="M -5,34 L 287,34 L 287,118.91666666666667 L 297,118.91666666666669" style="fill:none;stroke:rgb(34, 34, 68);"/><path d="M 0,0 L 8,-3 L 8,3 Z" transform="rotate(-179.99999999999994 297 118.91666666666669) translate(297 118.91666666666669)" style="fill:rgb(51, 51, 102);stroke:rgb(34, 34, 68);"/></g><g><path d="M 339,447.83333333333337 L 349,447.83333333333337 L 349,499.83333333333337 L 22,499.83333333333337 L 22,224.16666666666669 L 42,224.16666666666669" style="fill:none;stroke:rgb(34, 34, 68);"/><path d="M 0,0 L 8,-3 L 8,3 Z" transform="rotate(180 42 224.16666666666669) translate(42 224.16666666666669)" style="fill:rgb(51, 51, 102);stroke:rgb(34, 34, 68);"/></g><g><path d="M 154,440.33333333333337 L 174,440.33333333333337" style="fill:none;stroke:rgb(34, 34, 68);"/><path d="M 0,0 L 8,-3 L 8,3 Z" transform="rotate(180 174 440.33333333333337) translate(174 440.33333333333337)" style="fill:rgb(51, 51, 102);stroke:rgb(34, 34, 68);"/></g><g><path d="M 82,86 L 112,86" style="fill:none;stroke:rgb(34, 34, 68);"/><path d="M 0,0 L 8,-3 L 8,3 Z" transform="rotate(180 112 86) translate(112 86)" style="fill:rgb(51, 51, 102);stroke:rgb(34, 34, 68);"/></g><g><path d="M 82,86 L 92,86 L 92,134.16666666666669 L 235,134.16666666666669" style="fill:none;stroke:rgb(34, 34, 68);"/><path d="M 0,0 L 8,-3 L 8,3 Z" transform="rotate(180 235 134.16666666666669) translate(235 134.16666666666669)" style="fill:rgb(51, 51, 102);stroke:rgb(34, 34, 68);"/><g transform="translate(92, 86)"><circle r="2" style="fill:rgb(34, 34, 68);"/></g><g transform="translate(92, 134.16666666666669)"><circle r="2" style="fill:rgb(34, 34, 68);"/></g></g><g><path d="M 82,86 L 92,86 L 92,321.1666666666667 L 112,321.1666666666667" style="fill:none;stroke:rgb(34, 34, 68);"/><path d="M 0,0 L 8,-3 L 8,3 Z" transform="rotate(180 112 321.1666666666667) translate(112 321.1666666666667)" style="fill:rgb(51, 51, 102);stroke:rgb(34, 34, 68);"/><g transform="translate(92, 321.1666666666667)"><circle r="2" style="fill:rgb(34, 34, 68);"/></g></g><g><path d="M 154,331.33333333333337 L 164,331.33333333333337 L 164,477.83333333333337 L 225,477.83333333333337 L 225,463.08333333333337 L 235,463.08333333333337" style="fill:none;stroke:rgb(34, 34, 68);"/><path d="M 0,0 L 8,-3 L 8,3 Z" transform="rotate(180 235 463.08333333333337) translate(235 463.08333333333337)" style="fill:rgb(51, 51, 102);stroke:rgb(34, 34, 68);"/><g transform="translate(164, 331.33333333333337)"><circle r="2" style="fill:rgb(34, 34, 68);"/></g></g><g><path d="M 82,86 L 92,86 L 92,450.50000000000006 L 112,450.50000000000006" style="fill:none;stroke:rgb(34, 34, 68);"/><path d="M 0,0 L 8,-3 L 8,3 Z" transform="rotate(180 112 450.50000000000006) translate(112 450.50000000000006)" style="fill:rgb(51, 51, 102);stroke:rgb(34, 34, 68);"/></g><g><path d="M 204,447.83333333333337 L 235,447.83333333333337" style="fill:none;stroke:rgb(34, 34, 68);"/><path d="M 0,0 L 8,-3 L 8,3 Z" transform="rotate(180 235 447.83333333333337) translate(235 447.83333333333337)" style="fill:rgb(51, 51, 102);stroke:rgb(34, 34, 68);"/></g><g><path d="M -5,369.33333333333337 L 287,369.33333333333337 L 287,432.58333333333337 L 297,432.58333333333337" style="fill:none;stroke:rgb(34, 34, 68);"/><path d="M 0,0 L 8,-3 L 8,3 Z" transform="rotate(180 297 432.58333333333337) translate(297 432.58333333333337)" style="fill:rgb(51, 51, 102);stroke:rgb(34, 34, 68);"/></g><g><path d="M 154,331.33333333333337 L 164,331.33333333333337 L 164,149.41666666666669 L 235,149.41666666666669" style="fill:none;stroke:rgb(34, 34, 68);"/><path d="M 0,0 L 8,-3 L 8,3 Z" transform="rotate(180 235 149.41666666666669) translate(235 149.41666666666669)" style="fill:rgb(51, 51, 102);stroke:rgb(34, 34, 68);"/></g><g><path d="M 204,103.66666666666669 L 225,103.66666666666667 L 225,118.91666666666667 L 235,118.91666666666669" style="fill:none;stroke:rgb(34, 34, 68);"/><path d="M 0,0 L 8,-3 L 8,3 Z" transform="rotate(-179.99999999999994 235 118.91666666666669) translate(235 118.91666666666669)" style="fill:rgb(51, 51, 102);stroke:rgb(34, 34, 68);"/></g></g></g></svg>