<svg xmlns="http://www.w3.org/2000/svg" tabindex="0" version="1.1" viewBox="189.3292236328125 -14.002415657043457 527.873291015625 624.0025024414062"><g transform="scale(0.8487057965730952) translate(225.21907216494844,-12)"><g transform="translate(63, 33)"><rect x="0" y="0" width="493" height="664.75" style="fill:rgb(221, 221, 255);stroke:rgb(68, 68, 136);"/><text transform="translate(233, -21)" style="dominant-baseline:hanging;font-family:sans-serif;font-size:13.3333px;perspective-origin:14.7969px 0px;stroke:rgb(0, 0, 0);stroke-width:0px;">GCD</text><g transform="translate(-5, 630.75)"><rect x="0" y="0" width="5" height="5" style="fill:rgb(102, 102, 204);stroke:rgb(68, 68, 136);"/><text transform="translate(-46, 6)" style="dominant-baseline:hanging;font-family:sans-serif;font-size:13.3333px;perspective-origin:15.375px 0px;stroke:rgb(0, 0, 0);stroke-width:0px;">clock</text></g><g transform="translate(-5, 598.75)"><rect x="0" y="0" width="5" height="5" style="fill:rgb(102, 102, 204);stroke:rgb(68, 68, 136);"/><text transform="translate(-46, 6)" style="dominant-baseline:hanging;font-family:sans-serif;font-size:13.3333px;perspective-origin:15.2969px 0px;stroke:rgb(0, 0, 0);stroke-width:0px;">reset</text></g><g transform="translate(-5, 31.5)"><rect x="0" y="0" width="5" height="5" style="fill:rgb(102, 102, 204);stroke:rgb(68, 68, 136);"/><text transform="translate(-37, 6)" style="dominant-baseline:hanging;font-family:sans-serif;font-size:13.3333px;perspective-origin:13px 0px;stroke:rgb(0, 0, 0);stroke-width:0px;">io_a</text></g><g transform="translate(-5, 562)"><rect x="0" y="0" width="5" height="5" style="fill:rgb(102, 102, 204);stroke:rgb(68, 68, 136);"/><text transform="translate(-37, 6)" style="dominant-baseline:hanging;font-family:sans-serif;font-size:13.3333px;perspective-origin:12.5781px 0px;stroke:rgb(0, 0, 0);stroke-width:0px;">io_b</text></g><g transform="translate(-5, 530)"><rect x="0" y="0" width="5" height="5" style="fill:rgb(102, 102, 204);stroke:rgb(68, 68, 136);"/><text transform="translate(-37, 6)" style="dominant-baseline:hanging;font-family:sans-serif;font-size:13.3333px;perspective-origin:12.5781px 0px;stroke:rgb(0, 0, 0);stroke-width:0px;">io_e</text></g><g transform="translate(493, 42.5)"><rect x="0" y="0" width="5" height="5" style="fill:rgb(102, 102, 204);stroke:rgb(68, 68, 136);"/><text transform="translate(6, -17)" style="dominant-baseline:hanging;font-family:sans-serif;font-size:13.3333px;perspective-origin:12.4219px 0px;stroke:rgb(0, 0, 0);stroke-width:0px;">io_z</text></g><g transform="translate(493, 454.75)"><rect x="0" y="0" width="5" height="5" style="fill:rgb(102, 102, 204);stroke:rgb(68, 68, 136);"/><text transform="translate(6, 6)" style="dominant-baseline:hanging;font-family:sans-serif;font-size:13.3333px;perspective-origin:12.4219px 0px;stroke:rgb(0, 0, 0);stroke-width:0px;">io_v</text></g><g transform="translate(47, 330.0833333333333)"><rect x="0" y="0" width="30" height="40" style="fill:rgb(221, 221, 255);stroke:rgb(68, 68, 136);"/><text transform="translate(10.5, -21)" style="dominant-baseline:hanging;font-family:sans-serif;font-size:13.3333px;perspective-origin:3.53125px 0px;stroke:rgb(0, 0, 0);stroke-width:0px;">x</text><text transform="translate(5, 12)" style="dominant-baseline:hanging;font-family:sans-serif;font-size:13.3333px;perspective-origin:9.625px 0px;stroke:rgb(0, 0, 0);stroke-width:0px;">reg</text><g transform="translate(30, 17.5)"><rect x="0" y="0" width="5" height="5" style="fill:rgb(102, 102, 204);stroke:rgb(68, 68, 136);"/></g><g transform="translate(-5, 17.5)"><rect x="0" y="0" width="5" height="5" style="fill:rgb(102, 102, 204);stroke:rgb(68, 68, 136);"/></g></g><g transform="translate(47, 482.5)"><rect x="0" y="0" width="30" height="40" style="fill:rgb(221, 221, 255);stroke:rgb(68, 68, 136);"/><text transform="translate(10.5, -21)" style="dominant-baseline:hanging;font-family:sans-serif;font-size:13.3333px;perspective-origin:3.53125px 0px;stroke:rgb(0, 0, 0);stroke-width:0px;">y</text><text transform="translate(5, 12)" style="dominant-baseline:hanging;font-family:sans-serif;font-size:13.3333px;perspective-origin:9.625px 0px;stroke:rgb(0, 0, 0);stroke-width:0px;">reg</text><g transform="translate(30, 17.5)"><rect x="0" y="0" width="5" height="5" style="fill:rgb(102, 102, 204);stroke:rgb(68, 68, 136);"/></g><g transform="translate(-5, 17.5)"><rect x="0" y="0" width="5" height="5" style="fill:rgb(102, 102, 204);stroke:rgb(68, 68, 136);"/></g></g><g transform="translate(117, 138.25)"><rect x="0" y="0" width="32" height="56" style="fill:rgb(221, 221, 255);stroke:rgb(68, 68, 136);"/><text transform="translate(7, -21)" style="dominant-baseline:hanging;font-family:sans-serif;font-size:13.3333px;perspective-origin:6.0625px 0px;stroke:rgb(0, 0, 0);stroke-width:0px;">gt</text><g transform="translate(-5, 35.666666666666664)"><rect x="0" y="0" width="5" height="5" style="fill:rgb(102, 102, 204);stroke:rgb(68, 68, 136);"/><text transform="translate(6, -5.5)" style="dominant-baseline:hanging;font-family:sans-serif;font-size:13.3333px;perspective-origin:8.875px 0px;stroke:rgb(0, 0, 0);stroke-width:0px;">in2</text></g><g transform="translate(-5, 15.333333333333332)"><rect x="0" y="0" width="5" height="5" style="fill:rgb(102, 102, 204);stroke:rgb(68, 68, 136);"/><text transform="translate(6, -5.5)" style="dominant-baseline:hanging;font-family:sans-serif;font-size:13.3333px;perspective-origin:8.875px 0px;stroke:rgb(0, 0, 0);stroke-width:0px;">in1</text></g><g transform="translate(32, 25.5)"><rect x="0" y="0" width="5" height="5" style="fill:rgb(102, 102, 204);stroke:rgb(68, 68, 136);"/></g></g><g transform="translate(117, 332.25)"><rect x="0" y="0" width="32" height="56" style="fill:rgb(221, 221, 255);stroke:rgb(68, 68, 136);"/><text transform="translate(2.5, -21)" style="dominant-baseline:hanging;font-family:sans-serif;font-size:13.3333px;perspective-origin:10.7344px 0px;stroke:rgb(0, 0, 0);stroke-width:0px;">sub</text><g transform="translate(-5, 35.666666666666664)"><rect x="0" y="0" width="5" height="5" style="fill:rgb(102, 102, 204);stroke:rgb(68, 68, 136);"/><text transform="translate(6, -5.5)" style="dominant-baseline:hanging;font-family:sans-serif;font-size:13.3333px;perspective-origin:8.875px 0px;stroke:rgb(0, 0, 0);stroke-width:0px;">in2</text></g><g transform="translate(-5, 15.333333333333332)"><rect x="0" y="0" width="5" height="5" style="fill:rgb(102, 102, 204);stroke:rgb(68, 68, 136);"/><text transform="translate(6, -5.5)" style="dominant-baseline:hanging;font-family:sans-serif;font-size:13.3333px;perspective-origin:8.875px 0px;stroke:rgb(0, 0, 0);stroke-width:0px;">in1</text></g><g transform="translate(32, 25.5)"><rect x="0" y="0" width="5" height="5" style="fill:rgb(102, 102, 204);stroke:rgb(68, 68, 136);"/></g></g><g transform="translate(179, 347.75)"><rect x="0" y="0" width="20" height="40" style="fill:rgb(221, 221, 255);stroke:rgb(68, 68, 136);"/><text transform="translate(0, -21)" style="dominant-baseline:hanging;font-family:sans-serif;font-size:13.3333px;perspective-origin:8.5px 0px;stroke:rgb(0, 0, 0);stroke-width:0px;">tail</text><g transform="translate(-5, 10)"><rect x="0" y="0" width="5" height="5" style="fill:rgb(102, 102, 204);stroke:rgb(68, 68, 136);"/></g><g transform="translate(-5, 25)"><rect x="0" y="0" width="5" height="5" style="fill:rgb(102, 102, 204);stroke:rgb(68, 68, 136);"/><text transform="translate(6, -5.5)" style="dominant-baseline:hanging;font-family:sans-serif;font-size:13.3333px;perspective-origin:3.70312px 0px;stroke:rgb(0, 0, 0);stroke-width:0px;">1</text></g><g transform="translate(20, 17.5)"><rect x="0" y="0" width="5" height="5" style="fill:rgb(102, 102, 204);stroke:rgb(68, 68, 136);"/></g></g><g transform="translate(117, 235.25)"><rect x="0" y="0" width="32" height="56" style="fill:rgb(221, 221, 255);stroke:rgb(68, 68, 136);"/><text transform="translate(2.5, -21)" style="dominant-baseline:hanging;font-family:sans-serif;font-size:13.3333px;perspective-origin:10.7344px 0px;stroke:rgb(0, 0, 0);stroke-width:0px;">sub</text><g transform="translate(-5, 35.666666666666664)"><rect x="0" y="0" width="5" height="5" style="fill:rgb(102, 102, 204);stroke:rgb(68, 68, 136);"/><text transform="translate(6, -5.5)" style="dominant-baseline:hanging;font-family:sans-serif;font-size:13.3333px;perspective-origin:8.875px 0px;stroke:rgb(0, 0, 0);stroke-width:0px;">in2</text></g><g transform="translate(-5, 15.333333333333332)"><rect x="0" y="0" width="5" height="5" style="fill:rgb(102, 102, 204);stroke:rgb(68, 68, 136);"/><text transform="translate(6, -5.5)" style="dominant-baseline:hanging;font-family:sans-serif;font-size:13.3333px;perspective-origin:8.875px 0px;stroke:rgb(0, 0, 0);stroke-width:0px;">in1</text></g><g transform="translate(32, 25.5)"><rect x="0" y="0" width="5" height="5" style="fill:rgb(102, 102, 204);stroke:rgb(68, 68, 136);"/></g></g><g transform="translate(179, 250.75)"><rect x="0" y="0" width="20" height="40" style="fill:rgb(221, 221, 255);stroke:rgb(68, 68, 136);"/><text transform="translate(0, -21)" style="dominant-baseline:hanging;font-family:sans-serif;font-size:13.3333px;perspective-origin:8.5px 0px;stroke:rgb(0, 0, 0);stroke-width:0px;">tail</text><g transform="translate(-5, 10)"><rect x="0" y="0" width="5" height="5" style="fill:rgb(102, 102, 204);stroke:rgb(68, 68, 136);"/></g><g transform="translate(-5, 25)"><rect x="0" y="0" width="5" height="5" style="fill:rgb(102, 102, 204);stroke:rgb(68, 68, 136);"/><text transform="translate(6, -5.5)" style="dominant-baseline:hanging;font-family:sans-serif;font-size:13.3333px;perspective-origin:3.70312px 0px;stroke:rgb(0, 0, 0);stroke-width:0px;">1</text></g><g transform="translate(20, 17.5)"><rect x="0" y="0" width="5" height="5" style="fill:rgb(102, 102, 204);stroke:rgb(68, 68, 136);"/></g></g><g transform="translate(260, 123)"><rect x="0" y="0" width="32" height="56" style="fill:rgb(221, 221, 255);stroke:rgb(68, 68, 136);"/><text transform="translate(2.5, -21)" style="dominant-baseline:hanging;font-family:sans-serif;font-size:13.3333px;perspective-origin:12.7812px 0px;stroke:rgb(0, 0, 0);stroke-width:0px;">mux</text><g transform="translate(-5, 40.75)"><rect x="0" y="0" width="5" height="5" style="fill:rgb(102, 102, 204);stroke:rgb(68, 68, 136);"/><text transform="translate(6, -5.5)" style="dominant-baseline:hanging;font-family:sans-serif;font-size:13.3333px;perspective-origin:8.5px 0px;stroke:rgb(0, 0, 0);stroke-width:0px;">sel</text></g><g transform="translate(-5, 25.5)"><rect x="0" y="0" width="5" height="5" style="fill:rgb(102, 102, 204);stroke:rgb(68, 68, 136);"/><text transform="translate(6, -5.5)" style="dominant-baseline:hanging;font-family:sans-serif;font-size:13.3333px;perspective-origin:8.875px 0px;stroke:rgb(0, 0, 0);stroke-width:0px;">in2</text></g><g transform="translate(-5, 10.25)"><rect x="0" y="0" width="5" height="5" style="fill:rgb(102, 102, 204);stroke:rgb(68, 68, 136);"/><text transform="translate(6, -5.5)" style="dominant-baseline:hanging;font-family:sans-serif;font-size:13.3333px;perspective-origin:8.875px 0px;stroke:rgb(0, 0, 0);stroke-width:0px;">in1</text></g><g transform="translate(32, 25.5)"><rect x="0" y="0" width="5" height="5" style="fill:rgb(102, 102, 204);stroke:rgb(68, 68, 136);"/></g></g><g transform="translate(260, 242.75)"><rect x="0" y="0" width="32" height="56" style="fill:rgb(221, 221, 255);stroke:rgb(68, 68, 136);"/><text transform="translate(2.5, -21)" style="dominant-baseline:hanging;font-family:sans-serif;font-size:13.3333px;perspective-origin:12.7812px 0px;stroke:rgb(0, 0, 0);stroke-width:0px;">mux</text><g transform="translate(-5, 40.75)"><rect x="0" y="0" width="5" height="5" style="fill:rgb(102, 102, 204);stroke:rgb(68, 68, 136);"/><text transform="translate(6, -5.5)" style="dominant-baseline:hanging;font-family:sans-serif;font-size:13.3333px;perspective-origin:8.5px 0px;stroke:rgb(0, 0, 0);stroke-width:0px;">sel</text></g><g transform="translate(-5, 25.5)"><rect x="0" y="0" width="5" height="5" style="fill:rgb(102, 102, 204);stroke:rgb(68, 68, 136);"/><text transform="translate(6, -5.5)" style="dominant-baseline:hanging;font-family:sans-serif;font-size:13.3333px;perspective-origin:8.875px 0px;stroke:rgb(0, 0, 0);stroke-width:0px;">in2</text></g><g transform="translate(-5, 10.25)"><rect x="0" y="0" width="5" height="5" style="fill:rgb(102, 102, 204);stroke:rgb(68, 68, 136);"/><text transform="translate(6, -5.5)" style="dominant-baseline:hanging;font-family:sans-serif;font-size:13.3333px;perspective-origin:8.875px 0px;stroke:rgb(0, 0, 0);stroke-width:0px;">in1</text></g><g transform="translate(32, 25.5)"><rect x="0" y="0" width="5" height="5" style="fill:rgb(102, 102, 204);stroke:rgb(68, 68, 136);"/></g></g><g transform="translate(342, 123)"><rect x="0" y="0" width="32" height="56" style="fill:rgb(221, 221, 255);stroke:rgb(68, 68, 136);"/><text transform="translate(2.5, -21)" style="dominant-baseline:hanging;font-family:sans-serif;font-size:13.3333px;perspective-origin:12.7812px 0px;stroke:rgb(0, 0, 0);stroke-width:0px;">mux</text><g transform="translate(-5, 40.75)"><rect x="0" y="0" width="5" height="5" style="fill:rgb(102, 102, 204);stroke:rgb(68, 68, 136);"/><text transform="translate(6, -5.5)" style="dominant-baseline:hanging;font-family:sans-serif;font-size:13.3333px;perspective-origin:8.5px 0px;stroke:rgb(0, 0, 0);stroke-width:0px;">sel</text></g><g transform="translate(-5, 25.5)"><rect x="0" y="0" width="5" height="5" style="fill:rgb(102, 102, 204);stroke:rgb(68, 68, 136);"/><text transform="translate(6, -5.5)" style="dominant-baseline:hanging;font-family:sans-serif;font-size:13.3333px;perspective-origin:8.875px 0px;stroke:rgb(0, 0, 0);stroke-width:0px;">in2</text></g><g transform="translate(-5, 10.25)"><rect x="0" y="0" width="5" height="5" style="fill:rgb(102, 102, 204);stroke:rgb(68, 68, 136);"/><text transform="translate(6, -5.5)" style="dominant-baseline:hanging;font-family:sans-serif;font-size:13.3333px;perspective-origin:8.875px 0px;stroke:rgb(0, 0, 0);stroke-width:0px;">in1</text></g><g transform="translate(32, 25.5)"><rect x="0" y="0" width="5" height="5" style="fill:rgb(102, 102, 204);stroke:rgb(68, 68, 136);"/></g></g><g transform="translate(342, 489.25)"><rect x="0" y="0" width="32" height="56" style="fill:rgb(221, 221, 255);stroke:rgb(68, 68, 136);"/><text transform="translate(2.5, -21)" style="dominant-baseline:hanging;font-family:sans-serif;font-size:13.3333px;perspective-origin:12.7812px 0px;stroke:rgb(0, 0, 0);stroke-width:0px;">mux</text><g transform="translate(-5, 40.75)"><rect x="0" y="0" width="5" height="5" style="fill:rgb(102, 102, 204);stroke:rgb(68, 68, 136);"/><text transform="translate(6, -5.5)" style="dominant-baseline:hanging;font-family:sans-serif;font-size:13.3333px;perspective-origin:8.5px 0px;stroke:rgb(0, 0, 0);stroke-width:0px;">sel</text></g><g transform="translate(-5, 25.5)"><rect x="0" y="0" width="5" height="5" style="fill:rgb(102, 102, 204);stroke:rgb(68, 68, 136);"/><text transform="translate(6, -5.5)" style="dominant-baseline:hanging;font-family:sans-serif;font-size:13.3333px;perspective-origin:8.875px 0px;stroke:rgb(0, 0, 0);stroke-width:0px;">in2</text></g><g transform="translate(32, 25.5)"><rect x="0" y="0" width="5" height="5" style="fill:rgb(102, 102, 204);stroke:rgb(68, 68, 136);"/></g><g transform="translate(-5, 10.25)"><rect x="0" y="0" width="5" height="5" style="fill:rgb(102, 102, 204);stroke:rgb(68, 68, 136);"/><text transform="translate(6, -5.5)" style="dominant-baseline:hanging;font-family:sans-serif;font-size:13.3333px;perspective-origin:8.875px 0px;stroke:rgb(0, 0, 0);stroke-width:0px;">in1</text></g></g><g transform="translate(117, 429.25)"><rect x="0" y="0" width="32" height="56" style="fill:rgb(221, 221, 255);stroke:rgb(68, 68, 136);"/><text transform="translate(7, -21)" style="dominant-baseline:hanging;font-family:sans-serif;font-size:13.3333px;perspective-origin:7.40625px 0px;stroke:rgb(0, 0, 0);stroke-width:0px;">eq</text><g transform="translate(-5, 35.666666666666664)"><rect x="0" y="0" width="5" height="5" style="fill:rgb(102, 102, 204);stroke:rgb(68, 68, 136);"/><text transform="translate(6, -5.5)" style="dominant-baseline:hanging;font-family:sans-serif;font-size:13.3333px;perspective-origin:3.70312px 0px;stroke:rgb(0, 0, 0);stroke-width:0px;">0</text></g><g transform="translate(-5, 15.333333333333332)"><rect x="0" y="0" width="5" height="5" style="fill:rgb(102, 102, 204);stroke:rgb(68, 68, 136);"/><text transform="translate(6, -5.5)" style="dominant-baseline:hanging;font-family:sans-serif;font-size:13.3333px;perspective-origin:8.875px 0px;stroke:rgb(0, 0, 0);stroke-width:0px;">in1</text></g><g transform="translate(32, 25.5)"><rect x="0" y="0" width="5" height="5" style="fill:rgb(102, 102, 204);stroke:rgb(68, 68, 136);"/></g></g><g transform="translate(414, 123)"><rect x="0" y="0" width="32" height="56" style="fill:rgb(221, 221, 255);stroke:rgb(68, 68, 136);"/><text transform="translate(2.5, -21)" style="dominant-baseline:hanging;font-family:sans-serif;font-size:13.3333px;perspective-origin:12.7812px 0px;stroke:rgb(0, 0, 0);stroke-width:0px;">mux</text><g transform="translate(-5, 40.75)"><rect x="0" y="0" width="5" height="5" style="fill:rgb(102, 102, 204);stroke:rgb(68, 68, 136);"/><text transform="translate(6, -5.5)" style="dominant-baseline:hanging;font-family:sans-serif;font-size:13.3333px;perspective-origin:8.5px 0px;stroke:rgb(0, 0, 0);stroke-width:0px;">sel</text></g><g transform="translate(-5, 25.5)"><rect x="0" y="0" width="5" height="5" style="fill:rgb(102, 102, 204);stroke:rgb(68, 68, 136);"/><text transform="translate(6, -5.5)" style="dominant-baseline:hanging;font-family:sans-serif;font-size:13.3333px;perspective-origin:8.875px 0px;stroke:rgb(0, 0, 0);stroke-width:0px;">in2</text></g><g transform="translate(-5, 10.25)"><rect x="0" y="0" width="5" height="5" style="fill:rgb(102, 102, 204);stroke:rgb(68, 68, 136);"/><text transform="translate(6, -5.5)" style="dominant-baseline:hanging;font-family:sans-serif;font-size:13.3333px;perspective-origin:8.875px 0px;stroke:rgb(0, 0, 0);stroke-width:0px;">in1</text></g><g transform="translate(32, 25.5)"><rect x="0" y="0" width="5" height="5" style="fill:rgb(102, 102, 204);stroke:rgb(68, 68, 136);"/></g></g><g transform="translate(355, 56)"><rect x="0" y="0" width="19" height="26" style="fill:rgb(221, 221, 255);stroke:rgb(68, 68, 136);"/><text transform="translate(5, 5)" style="dominant-baseline:hanging;font-family:sans-serif;font-size:13.3333px;perspective-origin:3.70312px 0px;stroke:rgb(0, 0, 0);stroke-width:0px;">0</text></g><g transform="translate(414, 565.5)"><rect x="0" y="0" width="32" height="56" style="fill:rgb(221, 221, 255);stroke:rgb(68, 68, 136);"/><text transform="translate(2.5, -21)" style="dominant-baseline:hanging;font-family:sans-serif;font-size:13.3333px;perspective-origin:12.7812px 0px;stroke:rgb(0, 0, 0);stroke-width:0px;">mux</text><g transform="translate(-5, 40.75)"><rect x="0" y="0" width="5" height="5" style="fill:rgb(102, 102, 204);stroke:rgb(68, 68, 136);"/><text transform="translate(6, -5.5)" style="dominant-baseline:hanging;font-family:sans-serif;font-size:13.3333px;perspective-origin:8.5px 0px;stroke:rgb(0, 0, 0);stroke-width:0px;">sel</text></g><g transform="translate(-5, 25.5)"><rect x="0" y="0" width="5" height="5" style="fill:rgb(102, 102, 204);stroke:rgb(68, 68, 136);"/><text transform="translate(6, -5.5)" style="dominant-baseline:hanging;font-family:sans-serif;font-size:13.3333px;perspective-origin:8.875px 0px;stroke:rgb(0, 0, 0);stroke-width:0px;">in2</text></g><g transform="translate(-5, 10.25)"><rect x="0" y="0" width="5" height="5" style="fill:rgb(102, 102, 204);stroke:rgb(68, 68, 136);"/><text transform="translate(6, -5.5)" style="dominant-baseline:hanging;font-family:sans-serif;font-size:13.3333px;perspective-origin:8.875px 0px;stroke:rgb(0, 0, 0);stroke-width:0px;">in1</text></g><g transform="translate(32, 25.5)"><rect x="0" y="0" width="5" height="5" style="fill:rgb(102, 102, 204);stroke:rgb(68, 68, 136);"/></g></g><g transform="translate(355, 565.25)"><rect x="0" y="0" width="19" height="26" style="fill:rgb(221, 221, 255);stroke:rgb(68, 68, 136);"/><text transform="translate(5, 5)" style="dominant-baseline:hanging;font-family:sans-serif;font-size:13.3333px;perspective-origin:3.70312px 0px;stroke:rgb(0, 0, 0);stroke-width:0px;">0</text></g><g><path d="M 82,350.0833333333333 L 92,350.0833333333333 L 92,45 L 498,45" style="fill:none;stroke:rgb(34, 34, 68);"/><path d="M 0,0 L 8,-3 L 8,3 Z" transform="rotate(180 498 45) translate(498 45)" style="fill:rgb(51, 51, 102);stroke:rgb(34, 34, 68);"/></g><g><path d="M 82,502.5 L 102,502.5 L 102,176.41666666666669 L 112,176.41666666666669" style="fill:none;stroke:rgb(34, 34, 68);"/><path d="M 0,0 L 8,-3 L 8,3 Z" transform="rotate(180 112 176.41666666666669) translate(112 176.41666666666669)" style="fill:rgb(51, 51, 102);stroke:rgb(34, 34, 68);"/></g><g><path d="M 82,350.0833333333333 L 92,350.0833333333333 L 92,156.08333333333331 L 112,156.08333333333331" style="fill:none;stroke:rgb(34, 34, 68);"/><path d="M 0,0 L 8,-3 L 8,3 Z" transform="rotate(180 112 156.08333333333331) translate(112 156.08333333333331)" style="fill:rgb(51, 51, 102);stroke:rgb(34, 34, 68);"/><g transform="translate(92, 156.08333333333331)"><circle r="2" style="fill:rgb(34, 34, 68);"/></g></g><g><path d="M 82,502.5 L 102,502.5 L 102,370.4166666666667 L 112,370.4166666666667" style="fill:none;stroke:rgb(34, 34, 68);"/><path d="M 0,0 L 8,-3 L 8,3 Z" transform="rotate(180 112 370.4166666666667) translate(112 370.4166666666667)" style="fill:rgb(51, 51, 102);stroke:rgb(34, 34, 68);"/><g transform="translate(102, 370.4166666666667)"><circle r="2" style="fill:rgb(34, 34, 68);"/></g></g><g><path d="M 82,350.0833333333333 L 112,350.0833333333333" style="fill:none;stroke:rgb(34, 34, 68);"/><path d="M 0,0 L 8,-3 L 8,3 Z" transform="rotate(180 112 350.0833333333333) translate(112 350.0833333333333)" style="fill:rgb(51, 51, 102);stroke:rgb(34, 34, 68);"/></g><g><path d="M 154,360.25 L 174,360.25" style="fill:none;stroke:rgb(34, 34, 68);"/><path d="M 0,0 L 8,-3 L 8,3 Z" transform="rotate(180 174 360.25) translate(174 360.25)" style="fill:rgb(51, 51, 102);stroke:rgb(34, 34, 68);"/></g><g><path d="M 82,350.0833333333333 L 92,350.0833333333333 L 92,273.4166666666667 L 112,273.4166666666667" style="fill:none;stroke:rgb(34, 34, 68);"/><path d="M 0,0 L 8,-3 L 8,3 Z" transform="rotate(180 112 273.4166666666667) translate(112 273.4166666666667)" style="fill:rgb(51, 51, 102);stroke:rgb(34, 34, 68);"/><g transform="translate(92, 273.4166666666667)"><circle r="2" style="fill:rgb(34, 34, 68);"/></g></g><g><path d="M 82,502.5 L 102,502.5 L 102,253.08333333333331 L 112,253.08333333333331" style="fill:none;stroke:rgb(34, 34, 68);"/><path d="M 0,0 L 8,-3 L 8,3 Z" transform="rotate(180 112 253.08333333333331) translate(112 253.08333333333331)" style="fill:rgb(51, 51, 102);stroke:rgb(34, 34, 68);"/><g transform="translate(102, 502.5)"><circle r="2" style="fill:rgb(34, 34, 68);"/></g><g transform="translate(102, 253.08333333333331)"><circle r="2" style="fill:rgb(34, 34, 68);"/></g></g><g><path d="M 154,263.25 L 174,263.25" style="fill:none;stroke:rgb(34, 34, 68);"/><path d="M 0,0 L 8,-3 L 8,3 Z" transform="rotate(180 174 263.25) translate(174 263.25)" style="fill:rgb(51, 51, 102);stroke:rgb(34, 34, 68);"/></g><g><path d="M 154,166.25 L 255,166.25" style="fill:none;stroke:rgb(34, 34, 68);"/><path d="M 0,0 L 8,-3 L 8,3 Z" transform="rotate(180 255 166.25) translate(255 166.25)" style="fill:rgb(51, 51, 102);stroke:rgb(34, 34, 68);"/></g><g><path d="M 82,350.0833333333333 L 92,350.0833333333333 L 92,45 L 235,45 L 235,151 L 255,151" style="fill:none;stroke:rgb(34, 34, 68);"/><path d="M 0,0 L 8,-3 L 8,3 Z" transform="rotate(180 255 151) translate(255 151)" style="fill:rgb(51, 51, 102);stroke:rgb(34, 34, 68);"/><g transform="translate(92, 350.0833333333333)"><circle r="2" style="fill:rgb(34, 34, 68);"/></g><g transform="translate(235, 45)"><circle r="2" style="fill:rgb(34, 34, 68);"/></g></g><g><path d="M 204,367.75 L 225,367.75 L 225,135.75 L 255,135.75" style="fill:none;stroke:rgb(34, 34, 68);"/><path d="M 0,0 L 8,-3 L 8,3 Z" transform="rotate(180 255 135.75) translate(255 135.75)" style="fill:rgb(51, 51, 102);stroke:rgb(34, 34, 68);"/></g><g><path d="M 154,166.25 L 245,166.25 L 245,286 L 255,286" style="fill:none;stroke:rgb(34, 34, 68);"/><path d="M 0,0 L 8,-3 L 8,3 Z" transform="rotate(180 255 286) translate(255 286)" style="fill:rgb(51, 51, 102);stroke:rgb(34, 34, 68);"/><g transform="translate(245, 166.25)"><circle r="2" style="fill:rgb(34, 34, 68);"/></g></g><g><path d="M 204,270.75 L 255,270.75" style="fill:none;stroke:rgb(34, 34, 68);"/><path d="M 0,0 L 8,-3 L 8,3 Z" transform="rotate(180 255 270.75) translate(255 270.75)" style="fill:rgb(51, 51, 102);stroke:rgb(34, 34, 68);"/></g><g><path d="M 82,502.5 L 235,502.5 L 235,255.5 L 255,255.5" style="fill:none;stroke:rgb(34, 34, 68);"/><path d="M 0,0 L 8,-3 L 8,3 Z" transform="rotate(180 255 255.5) translate(255 255.5)" style="fill:rgb(51, 51, 102);stroke:rgb(34, 34, 68);"/></g><g><path d="M -5,532.5 L 307,532.5 L 307,166.25 L 337,166.25" style="fill:none;stroke:rgb(34, 34, 68);"/><path d="M 0,0 L 8,-3 L 8,3 Z" transform="rotate(180 337 166.25) translate(337 166.25)" style="fill:rgb(51, 51, 102);stroke:rgb(34, 34, 68);"/><g transform="translate(307, 532.5)"><circle r="2" style="fill:rgb(34, 34, 68);"/></g></g><g><path d="M 297,151 L 337,151" style="fill:none;stroke:rgb(34, 34, 68);"/><path d="M 0,0 L 8,-3 L 8,3 Z" transform="rotate(180 337 151) translate(337 151)" style="fill:rgb(51, 51, 102);stroke:rgb(34, 34, 68);"/></g><g><path d="M -5,34 L 307,34 L 307,135.75 L 337,135.75" style="fill:none;stroke:rgb(34, 34, 68);"/><path d="M 0,0 L 8,-3 L 8,3 Z" transform="rotate(180 337 135.75) translate(337 135.75)" style="fill:rgb(51, 51, 102);stroke:rgb(34, 34, 68);"/></g><g><path d="M -5,532.5 L 337,532.5" style="fill:none;stroke:rgb(34, 34, 68);"/><path d="M 0,0 L 8,-3 L 8,3 Z" transform="rotate(180 337 532.5) translate(337 532.5)" style="fill:rgb(51, 51, 102);stroke:rgb(34, 34, 68);"/></g><g><path d="M 297,270.75 L 327,270.75 L 327,517.25 L 337,517.25" style="fill:none;stroke:rgb(34, 34, 68);"/><path d="M 0,0 L 8,-3 L 8,3 Z" transform="rotate(180 337 517.25) translate(337 517.25)" style="fill:rgb(51, 51, 102);stroke:rgb(34, 34, 68);"/></g><g><path d="M -5,564.5 L 317,564.5 L 317,502 L 337,502" style="fill:none;stroke:rgb(34, 34, 68);"/><path d="M 0,0 L 8,-3 L 8,3 Z" transform="rotate(180 337 502) translate(337 502)" style="fill:rgb(51, 51, 102);stroke:rgb(34, 34, 68);"/></g><g><path d="M 82,502.5 L 102,502.5 L 102,447.08333333333337 L 112,447.08333333333337" style="fill:none;stroke:rgb(34, 34, 68);"/><path d="M 0,0 L 8,-3 L 8,3 Z" transform="rotate(180 112 447.08333333333337) translate(112 447.08333333333337)" style="fill:rgb(51, 51, 102);stroke:rgb(34, 34, 68);"/><g transform="translate(102, 447.08333333333337)"><circle r="2" style="fill:rgb(34, 34, 68);"/></g></g><g><path d="M 154,457.25 L 498,457.25" style="fill:none;stroke:rgb(34, 34, 68);"/><path d="M 0,0 L 8,-3 L 8,3 Z" transform="rotate(180 498 457.25) translate(498 457.25)" style="fill:rgb(51, 51, 102);stroke:rgb(34, 34, 68);"/></g><g><path d="M -5,601.25 L 389,601.25 L 389,166.25 L 409,166.25" style="fill:none;stroke:rgb(34, 34, 68);"/><path d="M 0,0 L 8,-3 L 8,3 Z" transform="rotate(180 409 166.25) translate(409 166.25)" style="fill:rgb(51, 51, 102);stroke:rgb(34, 34, 68);"/><g transform="translate(389, 601.25)"><circle r="2" style="fill:rgb(34, 34, 68);"/></g></g><g><path d="M 379,151 L 409,151" style="fill:none;stroke:rgb(34, 34, 68);"/><path d="M 0,0 L 8,-3 L 8,3 Z" transform="rotate(180 409 151) translate(409 151)" style="fill:rgb(51, 51, 102);stroke:rgb(34, 34, 68);"/></g><g><path d="M 451,151 L 471,151 L 471,12 L 32,12 L 32,350.0833333333333 L 42,350.0833333333333" style="fill:none;stroke:rgb(34, 34, 68);"/><path d="M 0,0 L 8,-3 L 8,3 Z" transform="rotate(180 42 350.0833333333333) translate(42 350.0833333333333)" style="fill:rgb(51, 51, 102);stroke:rgb(34, 34, 68);"/></g><g><path d="M 374,69 L 389,69 L 389,135.75 L 409,135.75" style="fill:none;stroke:rgb(34, 34, 68);"/><path d="M 0,0 L 8,-3 L 8,3 Z" transform="rotate(180 409 135.75) translate(409 135.75)" style="fill:rgb(51, 51, 102);stroke:rgb(34, 34, 68);"/></g><g><path d="M -5,601.25 L 389,601.25 L 389,608.75 L 409,608.75" style="fill:none;stroke:rgb(34, 34, 68);"/><path d="M 0,0 L 8,-3 L 8,3 Z" transform="rotate(180 409 608.75) translate(409 608.75)" style="fill:rgb(51, 51, 102);stroke:rgb(34, 34, 68);"/></g><g><path d="M 379,517.25 L 399,517.25 L 399,593.5 L 409,593.5" style="fill:none;stroke:rgb(34, 34, 68);"/><path d="M 0,0 L 8,-3 L 8,3 Z" transform="rotate(180 409 593.5) translate(409 593.5)" style="fill:rgb(51, 51, 102);stroke:rgb(34, 34, 68);"/></g><g><path d="M 451,593.5 L 461,593.5 L 461,23 L 22,23 L 22,502.5 L 42,502.5" style="fill:none;stroke:rgb(34, 34, 68);"/><path d="M 0,0 L 8,-3 L 8,3 Z" transform="rotate(180 42 502.5) translate(42 502.5)" style="fill:rgb(51, 51, 102);stroke:rgb(34, 34, 68);"/></g><g><path d="M 374,578.25 L 409,578.25" style="fill:none;stroke:rgb(34, 34, 68);"/><path d="M 0,0 L 8,-3 L 8,3 Z" transform="rotate(180 409 578.25) translate(409 578.25)" style="fill:rgb(51, 51, 102);stroke:rgb(34, 34, 68);"/></g></g></g></svg>