<svg xmlns="http://www.w3.org/2000/svg" tabindex="0" version="1.1" viewBox="-12 122.79989624023438 1333.9951171875 440.1797790527344"><g transform="scale(1.3559670781893005) translate(-12.000000000000057,89.78736722306525)"><g transform="translate(63, 33)"><rect x="0" y="0" width="861" height="271.75" style="fill:rgb(255, 255, 255);stroke:rgb(0, 0, 0);"/><text transform="translate(399, -21)" style="dominant-baseline:hanging;font-family:sans-serif;font-size:13.3333px;perspective-origin:26.875px 0px;stroke:rgb(0, 0, 0);stroke-width:0px;">VizModA</text><g transform="translate(-5, 226)"><rect x="0" y="0" width="5" height="5" style="fill:rgb(255, 255, 255);stroke:rgb(0, 0, 0);"/><text transform="translate(-46, 6)" style="dominant-baseline:hanging;font-family:sans-serif;font-size:13.3333px;perspective-origin:14.0781px 0px;stroke:rgb(0, 0, 0);stroke-width:0px;">io_in</text></g><g transform="translate(861, 237.25)"><rect x="0" y="0" width="5" height="5" style="fill:rgb(255, 255, 255);stroke:rgb(0, 0, 0);"/><text transform="translate(6, 6)" style="dominant-baseline:hanging;font-family:sans-serif;font-size:13.3333px;perspective-origin:18.1406px 0px;stroke:rgb(0, 0, 0);stroke-width:0px;">io_out</text></g><g transform="translate(216, 227.25)"><rect x="0" y="0" width="36" height="25" style="fill:rgb(255, 255, 255);stroke:rgb(0, 0, 0);"/><text transform="translate(0, -21)" style="dominant-baseline:hanging;font-family:sans-serif;font-size:13.3333px;perspective-origin:17.7656px 0px;stroke:rgb(0, 0, 0);stroke-width:0px;">modC</text><g transform="translate(-5, 10)"><rect x="0" y="0" width="5" height="5" style="fill:rgb(255, 255, 255);stroke:rgb(0, 0, 0);"/><text transform="translate(-46, 6)" style="dominant-baseline:hanging;font-family:sans-serif;font-size:13.3333px;perspective-origin:14.0781px 0px;stroke:rgb(0, 0, 0);stroke-width:0px;">io_in</text></g><g transform="translate(36, 10)"><rect x="0" y="0" width="5" height="5" style="fill:rgb(255, 255, 255);stroke:rgb(0, 0, 0);"/><text transform="translate(6, 6)" style="dominant-baseline:hanging;font-family:sans-serif;font-size:13.3333px;perspective-origin:18.1406px 0px;stroke:rgb(0, 0, 0);stroke-width:0px;">io_out</text></g></g><g transform="translate(144, 99.25)"><rect x="0" y="0" width="171" height="77" style="fill:rgb(255, 255, 255);stroke:rgb(0, 0, 0);"/><text transform="translate(67.5, -21)" style="dominant-baseline:hanging;font-family:sans-serif;font-size:13.3333px;perspective-origin:17.4062px 0px;stroke:rgb(0, 0, 0);stroke-width:0px;">modB</text><g transform="translate(-5, 43)"><rect x="0" y="0" width="5" height="5" style="fill:rgb(255, 255, 255);stroke:rgb(0, 0, 0);"/><text transform="translate(-46, 6)" style="dominant-baseline:hanging;font-family:sans-serif;font-size:13.3333px;perspective-origin:14.0781px 0px;stroke:rgb(0, 0, 0);stroke-width:0px;">io_in</text></g><g transform="translate(171, 43)"><rect x="0" y="0" width="5" height="5" style="fill:rgb(255, 255, 255);stroke:rgb(0, 0, 0);"/><text transform="translate(6, 6)" style="dominant-baseline:hanging;font-family:sans-serif;font-size:13.3333px;perspective-origin:18.1406px 0px;stroke:rgb(0, 0, 0);stroke-width:0px;">io_out</text></g><g transform="translate(63, 33)"><rect x="0" y="0" width="36" height="25" style="fill:rgb(255, 255, 255);stroke:rgb(0, 0, 0);"/><text transform="translate(0, -21)" style="dominant-baseline:hanging;font-family:sans-serif;font-size:13.3333px;perspective-origin:17.7656px 0px;stroke:rgb(0, 0, 0);stroke-width:0px;">modC</text><g transform="translate(-5, 10)"><rect x="0" y="0" width="5" height="5" style="fill:rgb(255, 255, 255);stroke:rgb(0, 0, 0);"/><text transform="translate(-46, 6)" style="dominant-baseline:hanging;font-family:sans-serif;font-size:13.3333px;perspective-origin:14.0781px 0px;stroke:rgb(0, 0, 0);stroke-width:0px;">io_in</text></g><g transform="translate(36, 10)"><rect x="0" y="0" width="5" height="5" style="fill:rgb(255, 255, 255);stroke:rgb(0, 0, 0);"/><text transform="translate(6, 6)" style="dominant-baseline:hanging;font-family:sans-serif;font-size:13.3333px;perspective-origin:18.1406px 0px;stroke:rgb(0, 0, 0);stroke-width:0px;">io_out</text></g></g><g><path d="M -5,45.5 L 58,45.5" style="fill:none;stroke:rgb(0, 0, 0);"/><path d="M 0,0 L 8,-3 L 8,3 Z" transform="rotate(180 58 45.5) translate(58 45.5)" style="fill:rgb(128, 128, 128);stroke:rgb(0, 0, 0);"/></g><g><path d="M 104,45.5 L 176,45.5" style="fill:none;stroke:rgb(0, 0, 0);"/><path d="M 0,0 L 8,-3 L 8,3 Z" transform="rotate(180 176 45.5) translate(176 45.5)" style="fill:rgb(128, 128, 128);stroke:rgb(0, 0, 0);"/></g></g><g transform="translate(507, 33)"><rect x="0" y="0" width="171" height="77" style="fill:rgb(255, 255, 255);stroke:rgb(0, 0, 0);"/><text transform="translate(63, -21)" style="dominant-baseline:hanging;font-family:sans-serif;font-size:13.3333px;perspective-origin:21.1094px 0px;stroke:rgb(0, 0, 0);stroke-width:0px;">modB2</text><g transform="translate(-5, 43)"><rect x="0" y="0" width="5" height="5" style="fill:rgb(255, 255, 255);stroke:rgb(0, 0, 0);"/><text transform="translate(-46, 6)" style="dominant-baseline:hanging;font-family:sans-serif;font-size:13.3333px;perspective-origin:14.0781px 0px;stroke:rgb(0, 0, 0);stroke-width:0px;">io_in</text></g><g transform="translate(171, 43)"><rect x="0" y="0" width="5" height="5" style="fill:rgb(255, 255, 255);stroke:rgb(0, 0, 0);"/><text transform="translate(6, 6)" style="dominant-baseline:hanging;font-family:sans-serif;font-size:13.3333px;perspective-origin:18.1406px 0px;stroke:rgb(0, 0, 0);stroke-width:0px;">io_out</text></g><g transform="translate(63, 33)"><rect x="0" y="0" width="36" height="25" style="fill:rgb(255, 255, 255);stroke:rgb(0, 0, 0);"/><text transform="translate(0, -21)" style="dominant-baseline:hanging;font-family:sans-serif;font-size:13.3333px;perspective-origin:17.7656px 0px;stroke:rgb(0, 0, 0);stroke-width:0px;">modC</text><g transform="translate(-5, 10)"><rect x="0" y="0" width="5" height="5" style="fill:rgb(255, 255, 255);stroke:rgb(0, 0, 0);"/><text transform="translate(-46, 6)" style="dominant-baseline:hanging;font-family:sans-serif;font-size:13.3333px;perspective-origin:14.0781px 0px;stroke:rgb(0, 0, 0);stroke-width:0px;">io_in</text></g><g transform="translate(36, 10)"><rect x="0" y="0" width="5" height="5" style="fill:rgb(255, 255, 255);stroke:rgb(0, 0, 0);"/><text transform="translate(6, 6)" style="dominant-baseline:hanging;font-family:sans-serif;font-size:13.3333px;perspective-origin:18.1406px 0px;stroke:rgb(0, 0, 0);stroke-width:0px;">io_out</text></g></g><g><path d="M -5,45.5 L 58,45.5" style="fill:none;stroke:rgb(0, 0, 0);"/><path d="M 0,0 L 8,-3 L 8,3 Z" transform="rotate(180 58 45.5) translate(58 45.5)" style="fill:rgb(128, 128, 128);stroke:rgb(0, 0, 0);"/></g><g><path d="M 104,45.5 L 176,45.5" style="fill:none;stroke:rgb(0, 0, 0);"/><path d="M 0,0 L 8,-3 L 8,3 Z" transform="rotate(180 176 45.5) translate(176 45.5)" style="fill:rgb(128, 128, 128);stroke:rgb(0, 0, 0);"/></g></g><g transform="translate(403.6666666666667, 212.25)"><rect x="0" y="0" width="20" height="40" style="fill:rgb(255, 255, 255);stroke:rgb(0, 0, 0);"/><text transform="translate(-3.5, -21)" style="dominant-baseline:hanging;font-family:sans-serif;font-size:13.3333px;perspective-origin:11.1094px 0px;stroke:rgb(0, 0, 0);stroke-width:0px;">add</text><g transform="translate(-5, 25)"><rect x="0" y="0" width="5" height="5" style="fill:rgb(255, 255, 255);stroke:rgb(0, 0, 0);"/></g><g transform="translate(-5, 10)"><rect x="0" y="0" width="5" height="5" style="fill:rgb(255, 255, 255);stroke:rgb(0, 0, 0);"/></g><g transform="translate(20, 17.5)"><rect x="0" y="0" width="5" height="5" style="fill:rgb(255, 255, 255);stroke:rgb(0, 0, 0);"/></g></g><g transform="translate(587, 219.75)"><rect x="0" y="0" width="20" height="40" style="fill:rgb(255, 255, 255);stroke:rgb(0, 0, 0);"/><text transform="translate(0, -21)" style="dominant-baseline:hanging;font-family:sans-serif;font-size:13.3333px;perspective-origin:8.51562px 0px;stroke:rgb(0, 0, 0);stroke-width:0px;">tail</text><g transform="translate(-5, 10)"><rect x="0" y="0" width="5" height="5" style="fill:rgb(255, 255, 255);stroke:rgb(0, 0, 0);"/></g><g transform="translate(-5, 25)"><rect x="0" y="0" width="5" height="5" style="fill:rgb(255, 255, 255);stroke:rgb(0, 0, 0);"/><text transform="translate(6, -5.5)" style="dominant-baseline:hanging;font-family:sans-serif;font-size:13.3333px;perspective-origin:3.70312px 0px;stroke:rgb(0, 0, 0);stroke-width:0px;">1</text></g><g transform="translate(20, 17.5)"><rect x="0" y="0" width="5" height="5" style="fill:rgb(255, 255, 255);stroke:rgb(0, 0, 0);"/></g></g><g transform="translate(763, 212.25)"><rect x="0" y="0" width="20" height="40" style="fill:rgb(255, 255, 255);stroke:rgb(0, 0, 0);"/><text transform="translate(-3.5, -21)" style="dominant-baseline:hanging;font-family:sans-serif;font-size:13.3333px;perspective-origin:11.1094px 0px;stroke:rgb(0, 0, 0);stroke-width:0px;">add</text><g transform="translate(-5, 25)"><rect x="0" y="0" width="5" height="5" style="fill:rgb(255, 255, 255);stroke:rgb(0, 0, 0);"/></g><g transform="translate(-5, 10)"><rect x="0" y="0" width="5" height="5" style="fill:rgb(255, 255, 255);stroke:rgb(0, 0, 0);"/></g><g transform="translate(20, 17.5)"><rect x="0" y="0" width="5" height="5" style="fill:rgb(255, 255, 255);stroke:rgb(0, 0, 0);"/></g></g><g transform="translate(813, 219.75)"><rect x="0" y="0" width="20" height="40" style="fill:rgb(255, 255, 255);stroke:rgb(0, 0, 0);"/><text transform="translate(0, -21)" style="dominant-baseline:hanging;font-family:sans-serif;font-size:13.3333px;perspective-origin:8.51562px 0px;stroke:rgb(0, 0, 0);stroke-width:0px;">tail</text><g transform="translate(-5, 10)"><rect x="0" y="0" width="5" height="5" style="fill:rgb(255, 255, 255);stroke:rgb(0, 0, 0);"/></g><g transform="translate(-5, 25)"><rect x="0" y="0" width="5" height="5" style="fill:rgb(255, 255, 255);stroke:rgb(0, 0, 0);"/><text transform="translate(6, -5.5)" style="dominant-baseline:hanging;font-family:sans-serif;font-size:13.3333px;perspective-origin:3.70312px 0px;stroke:rgb(0, 0, 0);stroke-width:0px;">1</text></g><g transform="translate(20, 17.5)"><rect x="0" y="0" width="5" height="5" style="fill:rgb(255, 255, 255);stroke:rgb(0, 0, 0);"/></g></g><g transform="translate(37, 219.75)"><rect x="0" y="0" width="20" height="40" style="fill:rgb(255, 255, 255);stroke:rgb(0, 0, 0);"/><text transform="translate(0, -21)" style="dominant-baseline:hanging;font-family:sans-serif;font-size:13.3333px;perspective-origin:10.3594px 0px;stroke:rgb(0, 0, 0);stroke-width:0px;">bits</text><g transform="translate(-5, 6.25)"><rect x="0" y="0" width="5" height="5" style="fill:rgb(255, 255, 255);stroke:rgb(0, 0, 0);"/></g><g transform="translate(-5, 17.5)"><rect x="0" y="0" width="5" height="5" style="fill:rgb(255, 255, 255);stroke:rgb(0, 0, 0);"/><text transform="translate(6, -5.5)" style="dominant-baseline:hanging;font-family:sans-serif;font-size:13.3333px;perspective-origin:7.40625px 0px;stroke:rgb(0, 0, 0);stroke-width:0px;">15</text></g><g transform="translate(-5, 28.75)"><rect x="0" y="0" width="5" height="5" style="fill:rgb(255, 255, 255);stroke:rgb(0, 0, 0);"/><text transform="translate(6, -5.5)" style="dominant-baseline:hanging;font-family:sans-serif;font-size:13.3333px;perspective-origin:3.70312px 0px;stroke:rgb(0, 0, 0);stroke-width:0px;">0</text></g><g transform="translate(20, 17.5)"><rect x="0" y="0" width="5" height="5" style="fill:rgb(255, 255, 255);stroke:rgb(0, 0, 0);"/></g></g><g transform="translate(37, 124.75)"><rect x="0" y="0" width="20" height="40" style="fill:rgb(255, 255, 255);stroke:rgb(0, 0, 0);"/><text transform="translate(0, -21)" style="dominant-baseline:hanging;font-family:sans-serif;font-size:13.3333px;perspective-origin:10.3594px 0px;stroke:rgb(0, 0, 0);stroke-width:0px;">bits</text><g transform="translate(-5, 6.25)"><rect x="0" y="0" width="5" height="5" style="fill:rgb(255, 255, 255);stroke:rgb(0, 0, 0);"/></g><g transform="translate(-5, 17.5)"><rect x="0" y="0" width="5" height="5" style="fill:rgb(255, 255, 255);stroke:rgb(0, 0, 0);"/><text transform="translate(6, -5.5)" style="dominant-baseline:hanging;font-family:sans-serif;font-size:13.3333px;perspective-origin:7.40625px 0px;stroke:rgb(0, 0, 0);stroke-width:0px;">15</text></g><g transform="translate(-5, 28.75)"><rect x="0" y="0" width="5" height="5" style="fill:rgb(255, 255, 255);stroke:rgb(0, 0, 0);"/><text transform="translate(6, -5.5)" style="dominant-baseline:hanging;font-family:sans-serif;font-size:13.3333px;perspective-origin:3.70312px 0px;stroke:rgb(0, 0, 0);stroke-width:0px;">0</text></g><g transform="translate(20, 17.5)"><rect x="0" y="0" width="5" height="5" style="fill:rgb(255, 255, 255);stroke:rgb(0, 0, 0);"/></g></g><g transform="translate(400, 58.5)"><rect x="0" y="0" width="20" height="40" style="fill:rgb(255, 255, 255);stroke:rgb(0, 0, 0);"/><text transform="translate(0, -21)" style="dominant-baseline:hanging;font-family:sans-serif;font-size:13.3333px;perspective-origin:10.3594px 0px;stroke:rgb(0, 0, 0);stroke-width:0px;">bits</text><g transform="translate(-5, 6.25)"><rect x="0" y="0" width="5" height="5" style="fill:rgb(255, 255, 255);stroke:rgb(0, 0, 0);"/></g><g transform="translate(-5, 17.5)"><rect x="0" y="0" width="5" height="5" style="fill:rgb(255, 255, 255);stroke:rgb(0, 0, 0);"/><text transform="translate(6, -5.5)" style="dominant-baseline:hanging;font-family:sans-serif;font-size:13.3333px;perspective-origin:7.40625px 0px;stroke:rgb(0, 0, 0);stroke-width:0px;">15</text></g><g transform="translate(-5, 28.75)"><rect x="0" y="0" width="5" height="5" style="fill:rgb(255, 255, 255);stroke:rgb(0, 0, 0);"/><text transform="translate(6, -5.5)" style="dominant-baseline:hanging;font-family:sans-serif;font-size:13.3333px;perspective-origin:3.70312px 0px;stroke:rgb(0, 0, 0);stroke-width:0px;">0</text></g><g transform="translate(20, 17.5)"><rect x="0" y="0" width="5" height="5" style="fill:rgb(255, 255, 255);stroke:rgb(0, 0, 0);"/></g></g><g><path d="M -5,228.5 L 32,228.5" style="fill:none;stroke:rgb(0, 0, 0);"/><path d="M 0,0 L 8,-3 L 8,3 Z" transform="rotate(180 32 228.5) translate(32 228.5)" style="fill:rgb(128, 128, 128);stroke:rgb(0, 0, 0);"/></g><g><path d="M 838,239.75 L 866,239.75" style="fill:none;stroke:rgb(0, 0, 0);"/><path d="M 0,0 L 8,-3 L 8,3 Z" transform="rotate(180 866 239.75) translate(866 239.75)" style="fill:rgb(128, 128, 128);stroke:rgb(0, 0, 0);"/></g><g><path d="M 425,78.5 L 502,78.5" style="fill:none;stroke:rgb(0, 0, 0);"/><path d="M 0,0 L 8,-3 L 8,3 Z" transform="rotate(180 502 78.5) translate(502 78.5)" style="fill:rgb(128, 128, 128);stroke:rgb(0, 0, 0);"/></g><g><path d="M 612,239.75 L 758,239.75" style="fill:none;stroke:rgb(0, 0, 0);"/><path d="M 0,0 L 8,-3 L 8,3 Z" transform="rotate(180 758 239.75) translate(758 239.75)" style="fill:rgb(128, 128, 128);stroke:rgb(0, 0, 0);"/></g><g><path d="M -5,228.5 L 22,228.5 L 22,133.5 L 32,133.5" style="fill:none;stroke:rgb(0, 0, 0);"/><path d="M 0,0 L 8,-3 L 8,3 Z" transform="rotate(180 32 133.5) translate(32 133.5)" style="fill:rgb(128, 128, 128);stroke:rgb(0, 0, 0);"/><g transform="translate(22, 228.5)"><circle r="2"/></g><g transform="translate(22, 133.5)"><circle r="2"/></g></g><g><path d="M 62,144.75 L 139,144.75" style="fill:none;stroke:rgb(0, 0, 0);"/><path d="M 0,0 L 8,-3 L 8,3 Z" transform="rotate(180 139 144.75) translate(139 144.75)" style="fill:rgb(128, 128, 128);stroke:rgb(0, 0, 0);"/></g><g><path d="M 428.6666666666667,232.25 L 582,232.25" style="fill:none;stroke:rgb(0, 0, 0);"/><path d="M 0,0 L 8,-3 L 8,3 Z" transform="rotate(180 582 232.25) translate(582 232.25)" style="fill:rgb(128, 128, 128);stroke:rgb(0, 0, 0);"/></g><g><path d="M 320,144.75 L 385,144.75 L 385,224.75 L 398.6666666666667,224.75" style="fill:none;stroke:rgb(0, 0, 0);"/><path d="M 0,0 L 8,-3 L 8,3 Z" transform="rotate(180 398.6666666666667 224.75) translate(398.6666666666667 224.75)" style="fill:rgb(128, 128, 128);stroke:rgb(0, 0, 0);"/></g><g><path d="M -5,228.5 L 22,228.5 L 22,67.25 L 395,67.25" style="fill:none;stroke:rgb(0, 0, 0);"/><path d="M 0,0 L 8,-3 L 8,3 Z" transform="rotate(180 395 67.25) translate(395 67.25)" style="fill:rgb(128, 128, 128);stroke:rgb(0, 0, 0);"/></g><g><path d="M 257,239.75 L 398.6666666666667,239.75" style="fill:none;stroke:rgb(0, 0, 0);"/><path d="M 0,0 L 8,-3 L 8,3 Z" transform="rotate(180 398.6666666666667 239.75) translate(398.6666666666667 239.75)" style="fill:rgb(128, 128, 128);stroke:rgb(0, 0, 0);"/></g><g><path d="M 788,232.25 L 808,232.25" style="fill:none;stroke:rgb(0, 0, 0);"/><path d="M 0,0 L 8,-3 L 8,3 Z" transform="rotate(180 808 232.25) translate(808 232.25)" style="fill:rgb(128, 128, 128);stroke:rgb(0, 0, 0);"/></g><g><path d="M 62,239.75 L 211,239.75" style="fill:none;stroke:rgb(0, 0, 0);"/><path d="M 0,0 L 8,-3 L 8,3 Z" transform="rotate(180 211 239.75) translate(211 239.75)" style="fill:rgb(128, 128, 128);stroke:rgb(0, 0, 0);"/></g><g><path d="M 683,78.5 L 748,78.5 L 748,224.75 L 758,224.75" style="fill:none;stroke:rgb(0, 0, 0);"/><path d="M 0,0 L 8,-3 L 8,3 Z" transform="rotate(180 758 224.75) translate(758 224.75)" style="fill:rgb(128, 128, 128);stroke:rgb(0, 0, 0);"/></g><g><path d="M 211,239.75 L 155,239.75 L 155,196.25 L 322,196.25 L 322,239.75 L 257,239.75" style="fill:none;stroke:rgb(0, 0, 0);"/><path d="M 0,0 L 8,-3 L 8,3 Z" transform="rotate(0 257 239.75) translate(257 239.75)" style="fill:rgb(128, 128, 128);stroke:rgb(0, 0, 0);"/></g></g></g></svg>